<?xml version="1.0" encoding="UTF-8" standalone="no"?>
<!-- Created with Inkscape (http://www.inkscape.org/) -->

<svg
   version="1.0"
   width="100"
   height="100"
   id="svg2"
   sodipodi:docname="heart.svg"
   inkscape:version="1.1.2 (b8e25be833, 2022-02-05)"
   xmlns:inkscape="http://www.inkscape.org/namespaces/inkscape"
   xmlns:sodipodi="http://sodipodi.sourceforge.net/DTD/sodipodi-0.dtd"
   xmlns="http://www.w3.org/2000/svg"
   xmlns:svg="http://www.w3.org/2000/svg">
  <sodipodi:namedview
     id="namedview7"
     pagecolor="#505050"
     bordercolor="#eeeeee"
     borderopacity="1"
     inkscape:pageshadow="0"
     inkscape:pageopacity="0"
     inkscape:pagecheckerboard="0"
     showgrid="false"
     inkscape:zoom="8.49"
     inkscape:cx="50"
     inkscape:cy="50"
     inkscape:window-width="1858"
     inkscape:window-height="1058"
     inkscape:window-x="-6"
     inkscape:window-y="-6"
     inkscape:window-maximized="1"
     inkscape:current-layer="svg2" />
  <defs
     id="defs4" />
  <g
     id="layer1"
     transform="matrix(0.15625,0,0,0.17378401,-0.39134597,-1.3302304)"
     style="fill:#ffffff">
    <path
       d="M 297.29747,550.86823 C 283.52243,535.43191 249.1268,505.33855 220.86277,483.99412 137.11867,420.75228 125.72108,411.5999 91.719238,380.29088 29.03471,322.57071 2.413622,264.58086 2.5048478,185.95124 2.5493594,147.56739 5.1656152,132.77929 15.914734,110.15398 34.151433,71.768267 61.014996,43.244667 95.360052,25.799457 119.68545,13.443675 131.6827,7.9542046 172.30448,7.7296236 c 42.49329,-0.234834 51.43863,4.7197234 76.43471,18.4518354 30.42451,16.714318 61.7399,52.435708 68.21323,77.810591 l 3.9981,15.6724 9.85963,-21.584508 c 55.71617,-121.972928 233.59836,-120.148052 295.50229,3.031588 19.63767,39.07605 21.79364,122.51317 4.38012,169.51287 -22.71527,61.30937 -65.38001,108.05053 -164.00634,179.67658 -64.68082,46.97364 -137.88474,118.04586 -142.98067,128.02803 -5.91548,11.58753 -0.28216,1.8159 -26.40808,-27.46078 z"
       id="path2417"
       style="fill:#ffffff" />
    <g
       transform="translate(129.28571,-64.285714)"
       id="g2221"
       style="fill:#ffffff" />
  </g>
</svg>
