<?xml version="1.0" encoding="UTF-8" standalone="no"?>
<svg
   version="1.0"
   width="640pt"
   height="640pt"
   viewBox="0 0 640 640"
   preserveAspectRatio="xMidYMid meet"
   id="svg10"
   sodipodi:docname="who.svg"
   inkscape:version="1.1.2 (b8e25be833, 2022-02-05)"
   xmlns:inkscape="http://www.inkscape.org/namespaces/inkscape"
   xmlns:sodipodi="http://sodipodi.sourceforge.net/DTD/sodipodi-0.dtd"
   xmlns="http://www.w3.org/2000/svg"
   xmlns:svg="http://www.w3.org/2000/svg">
  <defs
     id="defs14" />
  <sodipodi:namedview
     id="namedview12"
     pagecolor="#505050"
     bordercolor="#eeeeee"
     borderopacity="1"
     inkscape:pageshadow="0"
     inkscape:pageopacity="0"
     inkscape:pagecheckerboard="0"
     inkscape:document-units="pt"
     showgrid="false"
     inkscape:zoom="0.51035156"
     inkscape:cx="426.17681"
     inkscape:cy="539.82396"
     inkscape:window-width="1858"
     inkscape:window-height="1058"
     inkscape:window-x="-6"
     inkscape:window-y="-6"
     inkscape:window-maximized="1"
     inkscape:current-layer="svg10" />
  <metadata
     id="metadata2">
Created by potrace 1.15, written by Peter Selinger 2001-2017
</metadata>
  <path
     d="m 303.2,1.5 c -23.5,4.3 -42.5,14.5 -58.7,31.6 -39.4,41.6 -37.5,107.7 4.3,147 26.3,24.9 63.4,34.1 99.2,24.8 10.9,-2.8 28.1,-11.7 37.7,-19.4 32.6,-26.1 46.4,-69.7 34.8,-109.9 C 411,42.7 386.3,16.8 354.4,5.9 338,0.3 318.8,-1.3 303.2,1.5 Z"
     id="path4"
     style="fill:#000000;stroke:none;stroke-width:0.1" />
  <path
     d="m 170,231.1 c -17.1,1.2 -32.1,5.4 -48.2,13.4 -42,21 -69.5,62 -73.8,109.9 -0.8,8.4 -1,63.3 -0.8,177.6 l 0.3,108 h 80.7 c 1,-4.1 1.3,19.4 1.3,-105.2 V 375 H 154.3 179 V 640 H 462 V 375 h 24.5 24.5 v 158.8 c 0,109.8 0.3,102.1 1.1,106.2 H 592 c 1.3,-9.5 1.3,-267.5 0,-283 -5.4,-61 -47.6,-110.2 -105.5,-123.2 -6.4,-1.4 -13.9,-2.1 -26,-2.4 -30.5,-0.7 -280.7,-1 -290.5,-0.3 z"
     id="path6"
     style="fill:#000000;stroke:none;stroke-width:0.1"
     sodipodi:nodetypes="ccccccsccccccccscccccc" />
  <text
     xml:space="preserve"
     style="font-size:300px;line-height:1.25;font-family:sans-serif;stroke-width:0.75"
     x="242.4799"
     y="502.59473"
     id="text12365"><tspan
       sodipodi:role="line"
       id="tspan12363"
       style="font-style:normal;font-variant:normal;font-weight:normal;font-stretch:normal;font-size:300px;font-family:'Comic Sans MS';-inkscape-font-specification:'Comic Sans MS';fill:#e2ffff;fill-opacity:1;stroke-width:0.75"
       x="242.4799"
       y="502.59473"
       rotate="0 0">?</tspan></text>
</svg>
